<?xml version="1.0" encoding="utf-8"?>
<!-- Generator: Adobe Illustrator 15.1.0, SVG Export Plug-In . SVG Version: 6.00 Build 0)  -->
<!DOCTYPE svg PUBLIC "-//W3C//DTD SVG 1.1//EN" "http://www.w3.org/Graphics/SVG/1.1/DTD/svg11.dtd">
<svg version="1.1" id="Layer_1" xmlns="http://www.w3.org/2000/svg" xmlns:xlink="http://www.w3.org/1999/xlink" x="0px" y="0px"
	 width="100px" height="100px" viewBox="50 50 100 100" enable-background="new 50 50 100 100" xml:space="preserve">
<g>
	<linearGradient id="SVGID_1_" gradientUnits="userSpaceOnUse" x1="115.5283" y1="124.4268" x2="115.5283" y2="129.6934">
		<stop  offset="0" style="stop-color:#DA205D"/>
		<stop  offset="1" style="stop-color:#A02AD8"/>
	</linearGradient>
	<path fill="url(#SVGID_1_)" d="M99.02,129.371c3.146,0.085,5.972-1.051,9.058-1.246c3.107-0.076,5.614,0.793,8.613,1.439
		c4.928,0.645,8.991-1.311,13.773-1.981c-0.014,0-0.03-0.002-0.044-0.002c3.046-0.198,6.126,0.639,9.13,0.211
		c1.597-0.226,1.651-0.579,0.043-0.895c-1.528-0.302-2.905-0.943-4.355-1.49c-5.231-1.964-9.897-0.103-15.239,0.064
		c0.021-0.001,0.043-0.002,0.064-0.003c-4.239-0.18-8.044-1.437-12.342-0.918c-2.844,0.399-5.601,1.823-8.394,1.823
		c-2.039,0.011-3.978-0.267-5.889-0.514c-1.028,0.695-2.081,1.345-3.155,1.941C93.182,128.238,96.02,129.291,99.02,129.371z"/>
	<linearGradient id="SVGID_2_" gradientUnits="userSpaceOnUse" x1="75.2075" y1="104.708" x2="75.2075" y2="129.3594">
		<stop  offset="0" style="stop-color:#DA205D"/>
		<stop  offset="1" style="stop-color:#A02AD8"/>
	</linearGradient>
	<path fill="url(#SVGID_2_)" d="M91.82,113.521c-0.881-0.881-1.717-1.76-2.494-2.61c-2.886,7.718-12.961,14.1-21.147,14.1
		c-2.844,0-5.459-0.77-7.469-2.523c1.854,0.475,3.587,0.695,5.202,0.695c4.015,0,7.311-1.377,9.979-3.741
		c-0.336-1.504-1.28-2.851-2.742-3.66c0.52-2.623-0.897-5.282-3.441-6.273c-0.197-2.737-2.61-4.8-5.771-4.8
		c-2.315,0-5.03,1.105-7.575,3.864c-1.857,2.011-3.1,4.888-2.857,7.567c0.691,7.67,9.758,13.22,18.316,13.22
		c0.889,0,1.772-0.061,2.64-0.184c10.321-1.467,17.499-6.245,22.476-10.977C95.596,117.122,93.921,115.621,91.82,113.521z"/>
	<linearGradient id="SVGID_3_" gradientUnits="userSpaceOnUse" x1="117" y1="59.1782" x2="117" y2="117.8706">
		<stop  offset="0" style="stop-color:#DA205D"/>
		<stop  offset="1" style="stop-color:#A02AD8"/>
	</linearGradient>
	<path fill="url(#SVGID_3_)" d="M132.33,59.178c-0.389,0-0.711,0.109-0.944,0.342c-10.498,3.299-28.271,5.539-36.455,17.979
		c-5.392,8.196-2.9,15.526,0.508,20.827l-2.095,2.098c-0.953-0.683-1.669-1.071-2.029-1.071c-0.082,0-0.146,0.019-0.19,0.062
		l-3.588,3.587c-0.145,0.146-0.028,0.54,0.288,1.107c0.844,1.511,3.171,4.293,6.143,7.266c3.758,3.759,7.228,6.494,8.183,6.494
		c0.082,0,0.147-0.022,0.19-0.064l0.075-0.078l3.509-3.509c0.232-0.229-0.161-1.046-1.005-2.219l2.023-2.023
		c3.174,2.107,7.083,3.938,11.486,3.938c3.048,0,6.33-0.876,9.774-3.142c12.393-8.15,14.783-26.286,17.979-36.454
		C148.709,71.791,136.533,59.178,132.33,59.178z M129.61,68.898c-9.347,2.519-22.521,5.15-28.967,14.943
		c-1.643,2.501-2.457,4.908-2.692,7.184c-0.316-3.09,0.331-6.494,2.692-10.083c6.142-9.334,18.4-12.16,27.629-14.587
		c1.229-0.322,2.2-0.459,2.932-0.459C134.028,65.895,133.185,67.934,129.61,68.898z"/>
	<linearGradient id="SVGID_4_" gradientUnits="userSpaceOnUse" x1="99.7769" y1="134.332" x2="99.7769" y2="140.8232">
		<stop  offset="0" style="stop-color:#DA205D"/>
		<stop  offset="1" style="stop-color:#A02AD8"/>
	</linearGradient>
	<path fill="url(#SVGID_4_)" d="M132.727,138.062c-2.676-0.052-5.221-0.616-7.792-1.497c-6.501-2.192-12.219,0.198-18.793,0.17
		c-3.439,0-6.831-1.759-10.333-2.249c-5.292-0.641-9.978,0.906-15.196,1.13c0.025,0.002,0.054,0.004,0.08,0.004
		c-6.575-0.205-12.323-2.498-18.764-0.079c-1.779,0.672-3.479,1.463-5.359,1.833c-1.98,0.393-1.915,0.824,0.054,1.105
		c3.694,0.526,7.49-0.506,11.238-0.259c-0.019,0-0.037,0.002-0.056,0c5.888,0.829,10.891,3.238,16.957,2.444
		c3.692-0.8,6.78-1.873,10.605-1.776c3.8,0.239,7.277,1.643,11.154,1.539c5.502-0.148,10.556-2.964,16.076-1.947
		c4.403,0.801,8.339,1.766,12.855,0.872c2.042-0.404,3.965-1.254,6.021-1.597c0.931-0.155,2.904,0.161,2.964-0.819
		C140.446,136.838,136.69,138.14,132.727,138.062z"/>
</g>
</svg>
