<?xml version="1.0" encoding="utf-8"?>
<!-- Generator: Adobe Illustrator 15.1.0, SVG Export Plug-In . SVG Version: 6.00 Build 0)  -->
<!DOCTYPE svg PUBLIC "-//W3C//DTD SVG 1.1//EN" "http://www.w3.org/Graphics/SVG/1.1/DTD/svg11.dtd">
<svg version="1.1" id="Layer_1" xmlns="http://www.w3.org/2000/svg" xmlns:xlink="http://www.w3.org/1999/xlink" x="0px" y="0px"
	 width="100px" height="100px" viewBox="50 50 100 100" enable-background="new 50 50 100 100" xml:space="preserve">
<g>
	<path fill="#DA205D" d="M60.601,81.586c-4.133-8.716-1.504-18.249,4.99-23.375C55.017,59.633,51.284,73.915,60.601,81.586z"/>
	<path fill="#A02AD8" d="M94.383,126.982l2.104,10.687l-0.691,3.626h3.423l0.786-4.097l-2.101-17.218
		c-0.311,0.006-0.607,0.011-0.891,0.019L94.383,126.982z"/>
	<path fill="#A02AD8" d="M117.173,117.758l10.938,12.376l-0.235,5.963l-2.367,5.303h3.969l2.047-4.202l0.285-6.341l-0.227-0.893
		l-10.966-13.66C119.604,116.773,118.412,117.288,117.173,117.758z"/>
	<linearGradient id="SVGID_1_" gradientUnits="userSpaceOnUse" x1="101.9531" y1="58.375" x2="101.9531" y2="141.7896">
		<stop  offset="0" style="stop-color:#DA205D"/>
		<stop  offset="1" style="stop-color:#A02AD8"/>
	</linearGradient>
	<path fill="url(#SVGID_1_)" d="M137.224,117.453c0,0,5.309-13.313,3.477-19.792c-1.027-3.635,4.014-5.802,4.014-13.27
		c-8.649,6.709-7.863,0.849-18.657,0.849c-8.069,0-12.899,3.222-17.118,3.459c0,0-11.496-1.758-19.326-2.599
		c-0.857-1.102-1.712-2.11-2.562-3.047c-4.897,2.005-10.295,0.691-13.201-3.609c-4.415-6.535,0.279-14.696,6.388-13.38
		c-0.385,0.227-0.75,0.479-1.103,0.756c-0.862,0.681-1.617,1.515-2.207,2.531c-0.806,1.388-1.161,3.013-1.014,4.59
		c0.104,1.172,0.486,2.319,1.164,3.322c1.309,1.938,3.327,2.812,5.423,2.812c5.267,0,10.776-5.465,7.397-13.288
		c0.472-0.03,0.945-0.049,1.414-0.06c3.892-0.08,3.792-1.7,1.343-2.23c-1.306-0.209-2.733-0.338-4.188-0.338
		c-0.018,0-0.038,0-0.057,0c-3.357-4.703-11.032-7.17-17.173-4.975c-7.537,2.69-11.539,12.188-8.31,20.935
		c-1.121,2.693-1.279,6.331-2.875,10.484c-0.267,0.377-2.059,4.589,0.503,7.015c1.455,1.374,3.14,1.512,5.042-0.469l7.309-4.923
		c1.815,1.846,4.029,8.077,5.087,9.762c2.335,8.412,5.187,10.872,7.909,14.307l-1.309,14.668l0.876,10.724h3.064l0.341-11.198
		l5.411-14.371c0,0,0.022,0,0.051-0.001c19.265-0.323,19.198-0.749,27.376-4.715l13.204,16.448l2.765,9.033l-1.582,4.905h3.947
		l1.656-5.377l-1.25-9.895L137.224,117.453z M83.383,68.372c3.312,3.63,1.676,6.373-0.367,6.373
		C80.227,74.745,78.743,70.752,83.383,68.372z"/>
</g>
</svg>
