<?xml version="1.0" encoding="utf-8"?>
<!-- Generator: Adobe Illustrator 15.1.0, SVG Export Plug-In . SVG Version: 6.00 Build 0)  -->
<!DOCTYPE svg PUBLIC "-//W3C//DTD SVG 1.1//EN" "http://www.w3.org/Graphics/SVG/1.1/DTD/svg11.dtd">
<svg version="1.1" id="Layer_1" xmlns="http://www.w3.org/2000/svg" xmlns:xlink="http://www.w3.org/1999/xlink" x="0px" y="0px"
	 width="100px" height="100px" viewBox="0 0 100 100" enable-background="new 0 0 100 100" xml:space="preserve">
<linearGradient id="SVGID_1_" gradientUnits="userSpaceOnUse" x1="49.8242" y1="2" x2="49.8242" y2="97.8638">
	<stop  offset="0" style="stop-color:#DA205D"/>
	<stop  offset="1" style="stop-color:#A02AD8"/>
</linearGradient>
<path fill="url(#SVGID_1_)" d="M89.129,73.248c-2.173-3.436-7.914-6.312-11.658-7.898c0.015-1.463,0.064-3.033,0.101-4.654
	c4.016-1.977,10.699-5.705,13.754-8.701c2.999-2.944,7.962-10.737,7.322-13.201c-0.041-0.168-0.11-0.313-0.211-0.428
	c-0.521-0.62-1.36-0.509-2.489,0.323c-2.52,1.85-5.071,5.371-7.323,8.479c-1.468,2.03-2.991,4.128-3.812,4.652
	c-2.146,1.373-4.996,2.738-7.27,3.713c-0.174-3.922-0.836-7.63-2.82-10.097c8.557-5.903,10.233-8.343,8.843-24.313
	C82.528,9.219,73.156,0.271,63.126,2.287c11.312,13.602,7.738,15.477,7.738,15.477s-5.751-2.369-9.922-12.05
	c-12.154,10.547,10.884,27.84,11.745,29.209l-7.774,6.627c-2.626-0.38-5.633-0.646-8.796-0.796l0.017-2.625
	c0.007-0.942-0.756-1.716-1.699-1.719c-0.4-0.003-0.773,0.133-1.067,0.368c-0.392,0.308-0.65,0.79-0.651,1.331l-0.015,2.53
	c-1.855-0.038-3.733-0.04-5.59-0.003l0.015-2.505c0.007-0.943-0.754-1.718-1.698-1.721c-0.4-0.003-0.773,0.133-1.067,0.368
	c-0.392,0.308-0.65,0.79-0.653,1.331l-0.015,2.639c-3.215,0.148-6.277,0.415-8.945,0.802l-7.777-6.627
	c0.937-1.488,23.975-18.595,11.747-29.208c-4.174,9.681-9.923,12.047-9.923,12.047s-3.572-1.866,7.743-15.474
	C26.399,0.248,17.12,9.335,16.093,21.124c-1.39,15.965,0.209,18.339,8.845,24.304c-1.985,2.456-2.649,6.145-2.829,10.051
	c-2.278-0.982-5.149-2.365-7.311-3.756c-0.815-0.525-2.33-2.63-3.802-4.668c-2.215-3.079-4.728-6.561-7.213-8.43
	c-0.026-0.021-0.052-0.049-0.079-0.068c-1.127-0.833-1.964-0.943-2.494-0.326c-0.396,0.464-0.326,1.4,0.051,2.575
	c1.072,3.363,4.658,8.738,7.027,11.075c0.908,0.895,2.146,1.854,3.533,2.814l9.209,5.424c0.367,0.189,0.712,0.361,1.046,0.527
	c0.035,1.6,0.084,3.15,0.101,4.594c-0.092,0.039-0.179,0.074-0.271,0.113c-1.519,0.65-3.334,1.496-5.111,2.496
	c-2.597,1.473-5.089,3.279-6.372,5.287C8.117,76.768,6.402,81.775,7.65,83.15c0.166,0.189,0.389,0.295,0.625,0.34
	c0.071,0.01,0.138,0.045,0.213,0.047c0.203-0.002,0.412-0.059,0.618-0.16c0.87-0.43,1.145-1.477,1.485-2.809
	c0.478-1.828,1.129-4.332,3.598-6.234c2.305-1.773,5.981-3.332,8.816-4.377c0.425,1.158,1,2.266,1.694,3.32
	c-3.024,2.273-7.462,6.08-8.645,9.621c-0.49,1.453-0.847,3.068-1.028,4.566c-0.287,2.42-0.106,4.529,0.786,5.131
	c0.125,0.084,0.267,0.133,0.406,0.16c0.068,0.016,0.138,0.033,0.21,0.035c0.284,0.002,0.573-0.111,0.814-0.322
	c0.709-0.6,0.718-1.619,0.734-2.906c0-0.035,0-0.084,0.001-0.123c0-0.074,0.003-0.158,0.003-0.236
	c0.022-1.703,0.158-3.914,1.828-6.014c1.893-2.385,5.401-4.9,7.742-6.439c0.938,0.953,1.946,1.85,2.993,2.684
	c-1.71,2.51-4.558,7.221-4.467,10.658c0.087,3.412,1.17,7.312,2.645,7.678c0.087,0.027,0.173,0.035,0.26,0.035h0.003
	c0.392,0,0.744-0.219,0.956-0.602c0.411-0.717,0.112-1.57-0.236-2.559c-0.469-1.332-1.11-3.152-0.38-5.344
	c0.854-2.551,3.113-5.742,4.465-7.52c5.312,3.498,10.447,5.43,10.447,5.43c0.377,0.104,0.741,0.193,1.1,0.277
	c0.834,0.256,2.342,0.594,4.429,0.57c0.023,0,0.043,0,0.064,0c0.02,0,0.042,0.002,0.065,0c2.092,0.023,3.601-0.316,4.437-0.57
	c0.354-0.082,0.716-0.174,1.091-0.279c0,0,5.064-1.908,10.336-5.361c1.348,1.781,3.572,4.945,4.422,7.514
	c0.731,2.184,0.08,4.01-0.392,5.34c-0.351,0.988-0.651,1.844-0.249,2.561c0.216,0.385,0.565,0.604,0.96,0.602
	c0.09,0.002,0.177-0.008,0.264-0.031c1.473-0.367,2.568-4.262,2.668-7.672c0.018-0.734-0.096-1.533-0.312-2.361
	c-0.773-2.988-2.796-6.311-4.117-8.275c1.055-0.836,2.074-1.736,3.021-2.691c2.333,1.539,5.806,4.047,7.697,6.439
	c1.777,2.254,1.796,4.641,1.811,6.383c0.011,1.285,0.017,2.301,0.722,2.904c0.248,0.211,0.527,0.322,0.812,0.326
	c0.22-0.002,0.433-0.066,0.62-0.191c1.271-0.852,1.123-4.748,0.213-8.262c-0.126-0.49-0.27-0.975-0.424-1.439
	c-1.17-3.527-5.569-7.332-8.588-9.621c0.703-1.053,1.297-2.158,1.732-3.316c2.824,1.055,6.46,2.615,8.743,4.381
	c2.462,1.908,3.104,4.412,3.577,6.246c0.345,1.324,0.611,2.375,1.478,2.812c0.207,0.102,0.418,0.154,0.621,0.154
	c0.32,0.002,0.62-0.133,0.843-0.379c0.565-0.621,0.523-1.996,0.096-3.646C91.46,77.633,90.386,75.232,89.129,73.248z"/>
</svg>
