<?xml version="1.0" encoding="utf-8"?>
<!-- Generator: Adobe Illustrator 15.1.0, SVG Export Plug-In . SVG Version: 6.00 Build 0)  -->
<!DOCTYPE svg PUBLIC "-//W3C//DTD SVG 1.1//EN" "http://www.w3.org/Graphics/SVG/1.1/DTD/svg11.dtd">
<svg version="1.1" id="Layer_1" xmlns="http://www.w3.org/2000/svg" xmlns:xlink="http://www.w3.org/1999/xlink" x="0px" y="0px"
	 width="100px" height="100px" viewBox="50 50 100 100" enable-background="new 50 50 100 100" xml:space="preserve">
<g>
	<path fill="#A02AD8" d="M123.044,131.188l2.277-1.329v-5.516l-9.775-10.084c-1.732,0.431-3.39,0.798-4.992,1.132l9.377,9.34v6.604
		l-2.279,1.331v3.611h5.393V131.188L123.044,131.188z"/>
	<path fill="#A02AD8" d="M68.436,118.279h3.653l2.309-4.021l14.24-3.589c-1.707,0.071-6.184-0.976-7.716-0.971l-9.418,2.014
		L68.436,118.279z"/>
	<linearGradient id="SVGID_1_" gradientUnits="userSpaceOnUse" x1="99.9995" y1="63.7231" x2="99.9995" y2="136.2749">
		<stop  offset="0" style="stop-color:#DA205D"/>
		<stop  offset="1" style="stop-color:#A02AD8"/>
	</linearGradient>
	<path fill="url(#SVGID_1_)" d="M141.979,112.889c-5.779,1.631-2.966-14.33-3.985-18.839c-1.233-5.439-8.584-10.71-19.188-10.711
		c-0.859,0-1.75,0.035-2.663,0.11c-2.522,0.204-11.972,0.514-16.671,0.514c-6.787,0-10.537-11.663-20.667-16.12
		c-9.359-4.121-9.359-4.121-9.359-4.121c-10.756,6.551-11.373,6.241-12.254,8.93l-5.292,6.38l3.487,5.593l1.321,3.214l2.954-1.316
		c3.324,3.447,7.983,8.648,7.983,8.648l1.982,5.749l-6.13,5.098c0,0-2.997,7.89-2.996,7.906l-2.281,1.521v3.227h5.846l4.796-9.979
		l10.103-2.35c6.886,0.1,26.131,6.738,38.887,3.232l11.415,13.968v7.79l-2.28,1.331v3.609h6.271
		c4.146-12.81,4.698-13.653,3.738-15.128c-1.985-3.046-6.853-9.758-6.315-12.327l3.09-13.559c3.03,2.698-3.546,22.954,9.994,20.624
		C151.91,115.78,146.976,107.272,141.979,112.889z"/>
</g>
</svg>
