<?xml version="1.0" encoding="utf-8"?>
<!-- Generator: Adobe Illustrator 15.1.0, SVG Export Plug-In . SVG Version: 6.00 Build 0)  -->
<!DOCTYPE svg PUBLIC "-//W3C//DTD SVG 1.1//EN" "http://www.w3.org/Graphics/SVG/1.1/DTD/svg11.dtd">
<svg version="1.1" id="Layer_1" xmlns="http://www.w3.org/2000/svg" xmlns:xlink="http://www.w3.org/1999/xlink" x="0px" y="0px"
	 width="100px" height="100px" viewBox="50 50 100 100" enable-background="new 50 50 100 100" xml:space="preserve">
<g>
	<linearGradient id="SVGID_1_" gradientUnits="userSpaceOnUse" x1="99.9995" y1="57.2188" x2="99.9995" y2="142.7837">
		<stop  offset="0" style="stop-color:#DA205D"/>
		<stop  offset="1" style="stop-color:#A02AD8"/>
	</linearGradient>
	<path fill="url(#SVGID_1_)" d="M145.821,113.481l-11.773-32.272v-1.621c2.197-0.114,4.213,0.439,4.737-1.774
		c0.261-1.099-0.418-2.203-1.519-2.464l-33.091-3.436V66.8c0,0-0.104-2.008-1.618-2.008h-0.007l-0.679-6.793
		c-0.071-0.45-0.461-0.78-0.916-0.78h-0.957h-0.956c-0.458,0-0.845,0.33-0.917,0.78l-0.68,6.793h-0.009
		c-1.509,0-1.613,2.008-1.613,2.008v5.114L62.73,75.349c-1.098,0.261-1.778,1.366-1.518,2.464c0.527,2.213,2.533,1.667,4.736,1.784
		v1.611L54.18,113.481c-0.369,1.012-0.291,2.13,0.208,3.081c4.542,8.633,19.963,8.646,24.516,0c0.5-0.951,0.577-2.069,0.209-3.081
		L67.341,81.209V79.61l28.482,0.051c-0.03,3.891-0.402,51.965-0.402,51.965l-3.877,0.019c-2.001,0-3.621,2.829-3.621,4.83h-4.698
		c-2,0-3.619,2.83-3.619,4.83c0,0.814,0.659,1.479,1.474,1.479H100h18.921c0.813,0,1.477-0.664,1.477-1.479
		c0-1.999-1.623-4.83-3.623-4.83h-4.694c0-2-1.621-4.83-3.624-4.83l-3.879-0.019c0,0-0.369-48.074-0.398-51.965l28.479-0.051v1.599
		l-11.769,32.272c-0.369,1.012-0.293,2.13,0.208,3.081c4.549,8.646,19.973,8.633,24.514,0
		C146.111,115.611,146.189,114.493,145.821,113.481z M75.551,112.432c-7.384,0.572-10.435,0.572-17.812,0l8.905-26.841
		L75.551,112.432z M124.451,112.432l8.901-26.841l8.907,26.841C134.885,113.004,131.831,113.004,124.451,112.432z"/>
</g>
</svg>
