<?xml version="1.0" encoding="utf-8"?>
<!-- Generator: Adobe Illustrator 15.1.0, SVG Export Plug-In . SVG Version: 6.00 Build 0)  -->
<!DOCTYPE svg PUBLIC "-//W3C//DTD SVG 1.1//EN" "http://www.w3.org/Graphics/SVG/1.1/DTD/svg11.dtd">
<svg version="1.1" id="Layer_1" xmlns="http://www.w3.org/2000/svg" xmlns:xlink="http://www.w3.org/1999/xlink" x="0px" y="0px"
	 width="100px" height="100px" viewBox="50 50 100 100" enable-background="new 50 50 100 100" xml:space="preserve">
<g>
	<linearGradient id="SVGID_1_" gradientUnits="userSpaceOnUse" x1="76.4888" y1="60.459" x2="76.4888" y2="139.5425">
		<stop  offset="0" style="stop-color:#DA205D"/>
		<stop  offset="1" style="stop-color:#A02AD8"/>
	</linearGradient>
	<path fill="url(#SVGID_1_)" d="M97.741,139.542c-5.057-7.111-11.339-14.366-16.843-21.69c3.748-4.668,7.654-11.594,9.628-19.702
		c2.185,0,4.371-0.003,6.557-0.003c0,0,0.224-8.669-3.352-14.933c-0.656-0.081-1.314-0.157-1.97-0.234
		c-9.228,4.586-17.506,4.511-26.793-0.052c9.346,2.766,16.96,3.156,25.114-3.688c-2.709-12.955-8.315-18.781-8.315-18.781
		S66.114,67.21,59.939,85.397c-0.688,0.136-1.375,0.273-2.063,0.41c-2.267,6.838-2.64,16.084-2.64,16.084
		c1.585-0.365,3.55-0.732,5.141-1.098c1.832,7.116,5.847,13.129,10.427,17.296c-3.407,7.25-3.604,14.99-2.717,21.452
		C77.671,132.325,83.356,134.19,97.741,139.542z M79.389,69.594c5.147,0.002,4.012,7.26-1.073,7.26
		C73.062,76.85,74.063,69.596,79.389,69.594z"/>
	<linearGradient id="SVGID_2_" gradientUnits="userSpaceOnUse" x1="123.5117" y1="60.458" x2="123.5117" y2="139.5425">
		<stop  offset="0" style="stop-color:#DA205D"/>
		<stop  offset="1" style="stop-color:#A02AD8"/>
	</linearGradient>
	<path fill="url(#SVGID_2_)" d="M102.259,60.458c5.058,7.11,11.338,14.367,16.841,21.69c-3.751,4.668-7.656,11.593-9.626,19.703
		c-2.188,0-4.373,0-6.56,0.002c0,0-0.224,8.67,3.357,14.932c0.653,0.079,1.311,0.157,1.963,0.236
		c9.23-4.588,17.508-4.511,26.796,0.049c-9.344-2.765-16.958-3.152-25.115,3.689c2.707,12.955,8.315,18.782,8.315,18.782
		s15.654-6.753,21.828-24.941c0.688-0.136,1.375-0.273,2.062-0.411c2.27-6.838,2.644-16.081,2.644-16.081
		c-1.588,0.365-3.55,0.73-5.141,1.099c-1.832-7.116-5.845-13.131-10.429-17.299c3.408-7.247,3.604-14.985,2.717-21.45
		C122.329,67.674,116.643,65.806,102.259,60.458z M120.607,130.407c-5.146-0.003-4.008-7.263,1.075-7.263
		C126.938,123.148,125.936,130.404,120.607,130.407z"/>
</g>
</svg>
