<?xml version="1.0" encoding="utf-8"?>
<!-- Generator: Adobe Illustrator 15.1.0, SVG Export Plug-In . SVG Version: 6.00 Build 0)  -->
<!DOCTYPE svg PUBLIC "-//W3C//DTD SVG 1.1//EN" "http://www.w3.org/Graphics/SVG/1.1/DTD/svg11.dtd">
<svg version="1.1" id="Layer_1" xmlns="http://www.w3.org/2000/svg" xmlns:xlink="http://www.w3.org/1999/xlink" x="0px" y="0px"
	 width="100px" height="100px" viewBox="50 50 100 100" enable-background="new 50 50 100 100" xml:space="preserve">
<g>
	<linearGradient id="SVGID_1_" gradientUnits="userSpaceOnUse" x1="99.9995" y1="52.6084" x2="99.9995" y2="147.3921">
		<stop  offset="0" style="stop-color:#DA205D"/>
		<stop  offset="1" style="stop-color:#A02AD8"/>
	</linearGradient>
	<path fill="url(#SVGID_1_)" d="M138.313,116.151l-6.273-3.709l-1.494-53.697c0.285-1.259,0.367-2.503,0.235-3.706
		c-0.004-0.041-0.004-0.088-0.008-0.144c-0.015-0.377-0.043-0.981-0.356-1.481l0.033-0.724l-0.211,0.489
		c-0.109-0.125-0.247-0.241-0.415-0.337c-0.271-0.155-0.559-0.234-0.855-0.234c-0.837,0-1.507,0.621-1.697,1.582
		c-0.361,1.802-0.912,3.614-2.511,4.667c-1.623,1.073-3.767,1.459-6.007,1.791c-1.164,0.174-2.367,0.313-3.53,0.444
		c-1.37,0.16-2.786,0.323-4.186,0.545c-4.218,0.669-7.965,1.972-11.147,3.869c-1.838,1.097-3.381,2.191-4.706,3.346
		c-1.831,1.595-3.443,3.386-4.919,5.471c-3.625,5.124-4.507,10.299-4.893,13.134l-8.331-4.924l1.356-2.299l-16.712-4.253
		l11.791,12.584l1.356-2.296l47.714,28.197l0.603,2.535l-0.66,0.348c-3.867,2.027-8.058,4.258-12.809,6.817
		c-3.759,2.026-8.702,4.711-13.609,7.5c-3.312,1.882-6.556,3.728-9.821,5.645c-1.191,0.7-2.329,1.372-3.423,2.023
		c0.617-2.744,0.269-5.569-0.114-7.739c-0.303-1.735-0.717-3.462-1.121-5.125c-0.218-0.905-0.444-1.838-0.646-2.755
		c-0.971-4.385-0.936-8.537,0.109-12.354c1.06-4.127,3.555-7.955,6.849-10.499c0.325-0.251,0.658-0.491,0.997-0.734l-9.249-5.977
		c-0.997,0.97-1.943,2.018-2.846,3.162c-2.475,3.038-4.344,7.17-5.267,11.641c-0.353,1.711-0.553,3.532-0.628,5.727
		c-0.214,6.221,1.873,11.326,3.714,15.826c0.448,1.099,0.873,2.138,1.236,3.133c0.771,2.102,1.443,4.146,1.219,6.061
		c-0.21,1.797-1.506,3.109-2.883,4.26c-0.597,0.47-0.835,1.263-0.597,1.983c0.188,0.564,0.629,0.965,1.175,1.093l-0.279,0.354
		l0.529-0.316c0.266,0.017,0.54-0.024,0.801-0.13c1.691-0.684,2.93-1.411,3.996-2.347l47.738-24.581l6.275,3.706l-1.412-5.94
		L138.313,116.151z M127.351,64.604c-0.077,2.529-0.162,5.144-0.196,7.724c-0.077,5.546-0.117,11.348-0.128,17.235
		c-0.009,2.8,0.021,5.641,0.054,8.388c0.011,1.095,0.023,2.188,0.033,3.283c0.025,2.97,0.087,5.997,0.147,8.801l-2.502,0.696
		L95.001,93.145c0.471-1.226,0.768-2.542,0.885-3.928c0.114-1.37,0.314-3.164,0.877-4.9c0.797-2.471,2.022-4.721,3.639-6.693
		c1.146-1.399,2.594-2.726,4.432-4.053c1.714-1.24,3.66-2.276,5.634-2.991c1.645-0.599,3.393-1.071,5.082-1.527
		c0.829-0.224,1.659-0.449,2.482-0.689c2.473-0.717,6.477-1.882,9.34-4.394C127.365,64.179,127.358,64.391,127.351,64.604z"/>
</g>
</svg>
