<?xml version="1.0" encoding="utf-8"?>
<!-- Generator: Adobe Illustrator 15.1.0, SVG Export Plug-In . SVG Version: 6.00 Build 0)  -->
<!DOCTYPE svg PUBLIC "-//W3C//DTD SVG 1.1//EN" "http://www.w3.org/Graphics/SVG/1.1/DTD/svg11.dtd">
<svg version="1.1" id="Layer_1" xmlns="http://www.w3.org/2000/svg" xmlns:xlink="http://www.w3.org/1999/xlink" x="0px" y="0px"
	 width="100px" height="100px" viewBox="50 50 100 100" enable-background="new 50 50 100 100" xml:space="preserve">
<linearGradient id="SVGID_1_" gradientUnits="userSpaceOnUse" x1="99.9995" y1="53.584" x2="99.9995" y2="146.4126">
	<stop  offset="0" style="stop-color:#DA205D"/>
	<stop  offset="1" style="stop-color:#A02AD8"/>
</linearGradient>
<path fill="url(#SVGID_1_)" d="M96.842,58.917c-3.104-7.05-15.914-8.09-22.731,2.909c12.212-1.542,12.718,0.081,12.718,0.081
	s0.159,3.255-7.074,2.075c3.474,5.603,13.035,6.976,16.502,2.439c0.701,0.893,1.604,1.738,2.684,2.458
	c0.952,0.634,1.945,1.104,2.916,1.414c-0.244,1.068-0.322,2.262-0.193,3.509c0.201,1.924,0.866,3.619,1.777,4.849
	c-1.093,0.483-2.19,1.293-3.132,2.391c-0.681,0.791-1.2,1.644-1.558,2.494c-1.584,0.164-3.015,0.665-4.227,1.429
	c-0.311-0.938-0.934-1.778-1.828-2.347c-0.464-0.296-0.962-0.494-1.471-0.6c1.081,1.444,1.221,3.46,0.195,5.072
	c-1.029,1.609-2.917,2.33-4.684,1.957c0.313,0.416,0.699,0.786,1.166,1.083c0.883,0.563,1.892,0.775,2.859,0.674
	c-0.167,1.359-0.02,2.854,0.525,4.43c-0.621,0.682-1.175,1.509-1.609,2.464c-0.598,1.315-0.869,2.652-0.849,3.849
	c-1.498-0.314-3.315-0.2-5.146,0.43c-1.184,0.408-2.234,0.982-3.098,1.652c-0.691-0.749-1.536-1.453-2.513-2.05
	c-1.106-0.678-2.256-1.139-3.359-1.397c2.653-5.057-2.621-13.148-9.163-13.94c4.114,6.064,1.095,7.291,1.095,7.291
	s-1.684,0.221-5.43-11.5c-7.102,10.815-0.765,21.992,6.939,21.839c0.104,2.172,1.833,4.704,4.606,6.401
	c2.99,1.824,6.279,2.124,8.229,0.945c1.603,0.497,3.683,0.45,5.778-0.269c3.109-1.07,5.294-3.28,5.577-5.397
	c1.572-0.185,3.265-1.485,4.436-3.467l2.165,1.738l-1.848,5.399l-3.413,1.564c-1.632,0.162-2.823,1.61-2.665,3.239l7.802-1.993
	l2.5-6.3l2.925,2.143l-1.16,4.279l-3.095,1.646c-1.582,0.43-2.515,2.057-2.087,3.637l7.065-2.722l1.778-5.24l3.188,1.725l-0.31,2.87
	l-3.099,1.642c-1.578,0.43-2.512,2.061-2.084,3.64l7.064-2.72l1.253-4.347c1.307,0.476,2.532,0.79,3.685,0.952l-0.172,2.646
	l-3.264,1.976c-1.388,0.869-1.812,2.698-0.943,4.088l6.347-3.9l1.535-4.783c0.645-0.096,2.396-0.54,2.396-0.54
	c0.014,0.004,0.021,0.016,0.032,0.021c1.148,0.734,2.213,0.521,3.495-0.044c0.096,1.193,0.654,2.271,1.645,2.904
	c0.89,0.568,1.957,0.672,2.979,0.385c-0.031,1.377,0.545,2.651,1.661,3.366c0.571,0.363,1.212,0.538,1.873,0.542
	c-0.363,1.431-0.043,2.885,0.887,3.825c-0.013,0.017-0.025,0.031-0.035,0.049c-0.779,1.224-0.947,2.635-0.564,3.793
	c-0.372,0.305-0.709,0.675-0.988,1.11c-0.395,0.62-0.624,1.29-0.699,1.95c-0.916,0.261-1.779,0.89-2.373,1.82
	c-0.031,0.047-0.056,0.096-0.083,0.144c-0.067-0.036-0.137-0.073-0.204-0.108c-1.356-0.612-2.773-0.339-3.694,1.062
	c-0.489-1.066-2.874-2.591-5.187-0.308c-3.194-5.19-16.079-0.176-5.511,13.175l1.714-5.395c1.424-0.496,2.905-1.854,3.699-3.097
	c0.482,0.912,2.875,1.93,4.346-0.246c1.289,2.438,4.69,1.793,5.623-0.138l0.009,0.01c1.556,0.994,3.76,0.319,4.925-1.502
	c0.335-0.528,0.543-1.094,0.639-1.651c1.028-0.236,2.024-0.916,2.688-1.96c0.704-1.106,0.885-2.369,0.598-3.44
	c0.46-0.341,0.874-0.775,1.21-1.3c1.081-1.69,0.985-3.74-0.109-4.981c0.055-0.076,0.109-0.154,0.161-0.232
	c1.773-2.777,0.432-6.178-2.476-6.302c0.517-1.809-0.018-3.688-1.472-4.613c-0.892-0.57-1.966-0.675-2.991-0.388
	c0.028-1.367-0.544-2.64-1.655-3.349c-0.99-0.63-2.199-0.684-3.32-0.271c-0.022-1.407-0.278-2.47-1.426-3.205
	c-0.015-0.007-0.028-0.01-0.04-0.02c0,0-0.334-1.774-0.519-2.398l3.924-3.768l0.633-7.04c-1.629-0.2-3.104,0.954-3.309,2.578
	l-0.185,3.432l-2.558,1.632c-0.635-0.98-1.435-1.957-2.418-2.941l3.644-3.33l-0.74-7.19c-1.612,0.275-2.695,1.809-2.421,3.423
	l0.041,3.14l-2.699,1.851l-2.908-2.166l4.24-4.181l-0.739-7.193c-1.613,0.277-2.703,1.809-2.422,3.424l0.041,3.142l-3.62,3.212
	l-3.177-1.75l4.89-5.28l-1.707-7.556c-1.547,0.544-2.357,2.233-1.819,3.783l0.253,3.394l-4.349,4.312l-2.489-1.235
	c1.308-1.895,1.77-3.978,1.277-5.481c1.799-1.146,2.883-4.061,2.544-7.331c-0.232-2.205-1.065-4.11-2.189-5.352
	c0.247-2.265-1.413-5.124-4.326-7.066C101.877,58.598,98.859,58.095,96.842,58.917z"/>
</svg>
