<?xml version="1.0" encoding="utf-8"?>
<!-- Generator: Adobe Illustrator 15.1.0, SVG Export Plug-In . SVG Version: 6.00 Build 0)  -->
<!DOCTYPE svg PUBLIC "-//W3C//DTD SVG 1.1//EN" "http://www.w3.org/Graphics/SVG/1.1/DTD/svg11.dtd">
<svg version="1.1" id="Layer_1" xmlns="http://www.w3.org/2000/svg" xmlns:xlink="http://www.w3.org/1999/xlink" x="0px" y="0px"
	 width="100px" height="100px" viewBox="50 50 100 100" enable-background="new 50 50 100 100" xml:space="preserve">
<g>
	<path fill="#A02AD8" d="M128.718,120.076c-0.016-2.31,0.021-3.605,0.253-6.269c-0.104-0.268-5.738-8.359-5.885-8.608
		c-1.532,0.326-4.619,3.809-4.619,3.809s6.066,4.49,6.214,7.355l0.152,2.947l-3.528,4.277h4.859l1.524-2.096L128.718,120.076z"/>
	<path fill="#DA205D" d="M65.307,84.522c-1.382-1.9-6.482-1.481-10.125-4.774c-0.495-0.448-0.944-0.956-1.35-1.518
		c1.809,6.567,6.508,5.855,10.016,7.584L65.307,84.522z"/>
	<polygon fill="#A02AD8" points="92.735,123.587 91.298,113.123 86.34,110.708 88.672,123.231 86.035,127.509 90.169,127.509 	"/>
	<linearGradient id="SVGID_1_" gradientUnits="userSpaceOnUse" x1="100.4697" y1="72.4907" x2="100.4697" y2="127.5103">
		<stop  offset="0" style="stop-color:#DA205D"/>
		<stop  offset="1" style="stop-color:#A02AD8"/>
	</linearGradient>
	<path fill="url(#SVGID_1_)" d="M146.167,112.182c-1.89-18.958,0.815-30.903-7.047-36.626c-11.432-8.322-23.53,3.16-33.552,1.173
		c-21.55-4.275-16.612,1.637-27.461,3.066c-3.888-2.707-7.273-3.306-10.264-3.306c-0.062,0-0.122,0-0.182,0.001
		c-2.255,0.019-4.286,0.362-6.143,0.375c-0.042,0-0.082,0.002-0.122,0.002c-2.481,0-4.649-0.621-6.624-3.446
		c1.323,9.097,13.306,4.746,14.971,9.927c0,0-5.14,3.99-5.925,5.262c-0.932,1.506-0.579,2.832-1.206,4.487
		c-0.854,2.245-5.064,7.671-5.226,9.381c-0.088,0.935,0.109,1.584,0.727,2.292c0.562,0.641,3.309,2.616,5.034,2.616
		c0.009,0,0.014,0,0.021,0c0.102,0,0.191-0.006,0.274-0.018c1.365-0.209,1.751-1.328,3.058-1.78
		c2.471-0.858,5.663,0.054,8.419-1.937c1.132-0.818,2.098-1.66,2.983-2.439l17.588,9.721l1.674,12.654l-2.673,3.922h5.882
		l2.496-16.255c11.307-0.909,16.812-10.629,22.365-11.94c7.923,12.841,8.211,13.207,8.436,16.074l-0.309,4.28l-2.07,3.922h5.706
		c0,0,1.41-8.596,1.783-11.406c-0.564-4.626-0.963-10.098,0.354-14.437l2.711-3.156c0,0,1.208,11.634,0.753,14.77
		C143.992,112.182,146.167,112.182,146.167,112.182z"/>
</g>
</svg>
