<?xml version="1.0" encoding="utf-8"?>
<!-- Generator: Adobe Illustrator 15.1.0, SVG Export Plug-In . SVG Version: 6.00 Build 0)  -->
<!DOCTYPE svg PUBLIC "-//W3C//DTD SVG 1.1//EN" "http://www.w3.org/Graphics/SVG/1.1/DTD/svg11.dtd">
<svg version="1.1" id="Layer_1" xmlns="http://www.w3.org/2000/svg" xmlns:xlink="http://www.w3.org/1999/xlink" x="0px" y="0px"
	 width="100px" height="100px" viewBox="50 50 100 100" enable-background="new 50 50 100 100" xml:space="preserve">
<g>
	<linearGradient id="SVGID_1_" gradientUnits="userSpaceOnUse" x1="99.999" y1="55.9609" x2="99.999" y2="144.0405">
		<stop  offset="0" style="stop-color:#DA205D"/>
		<stop  offset="1" style="stop-color:#A02AD8"/>
	</linearGradient>
	<path fill="url(#SVGID_1_)" d="M145.765,97.856c-0.266-13.132-4.488-26.203-14.653-34.444c-12.4-10.055-32.085-9.688-42.45-0.378
		c-3.424,3.079-7.871,8.917-6.224,14.971c-0.915,4.324-0.794,8.714,0.178,12.435c0.11,1.275,0.061,1.016-4.816,9.467
		c-0.346,0.601-0.198,1.362,0.345,1.786l2.737,2.132l-0.215,2.19c-0.055,0.541,0.211,1.063,0.684,1.337l1.12,0.644v1.366
		c0,0.492,0.263,0.953,0.69,1.199l0.954,0.355c0.526,0.195,0.881,0.692,0.902,1.251c0.085,2.532,0.158,4.322,0.646,5.553
		c0.356-0.02,0.715-0.037,1.077-0.053c5.681-0.283,12.116-0.602,19.35-2.131c7.559-1.597,7.98-4.667,7.786-7.417
		c-0.141-1.951-0.818-7.17-1.279-10.073c-2.738-0.754-5.901-1.617-8.772-2.454c-7.979-2.318-14.839-7.359-19.43-14.284
		c0.506,0.653,1.056,1.267,1.64,1.833c5.458,5.291,14.645,7.596,29.883,11.798c0,0,1.461,9.385,1.597,10.601
		c0.13,1.136,0.274,2.282,0.266,3.428c-0.026,2.711-1.03,5.229-3.118,7.004c-4.76,4.054-18.021,5.028-24.288,5.387
		c-16.991,0.97-27.823-0.155-36.152,22.681c26.042-12.138,42.311,4.17,68.477-6.5C139.062,130.866,146.125,115.525,145.765,97.856z"
		/>
</g>
</svg>
